<svg width="355" height="253" viewBox="0 0 355 253" fill="none" xmlns="http://www.w3.org/2000/svg">
<g filter="url(#filter0_d_1_2917)">
<path d="M17.956 200.014L16.066 197.638C15.346 196.558 14.77 195.55 14.338 194.614C13.906 193.678 13.6 192.526 13.42 191.158C13.168 190.294 13.006 189.484 12.934 188.728C12.862 187.972 12.826 187.108 12.826 186.136C12.862 185.128 12.898 183.886 12.934 182.41C12.97 181.042 13.186 179.926 13.582 179.062C13.978 178.162 14.248 177.568 14.392 177.28C15.148 176.632 15.76 176.506 16.228 176.902C16.732 177.298 17.092 177.964 17.308 178.9C17.56 179.836 17.668 180.826 17.632 181.87C17.74 185.722 17.974 188.638 18.334 190.618C18.73 192.598 19.216 193.822 19.792 194.29C20.224 194.398 20.602 194.362 20.926 194.182C21.25 193.966 21.664 193.57 22.168 192.994C22.708 192.382 23.446 191.59 24.382 190.618C25.39 189.574 26.398 188.476 27.406 187.324C28.414 186.136 29.368 185.002 30.268 183.922C31.204 182.842 32.032 181.906 32.752 181.114C33.508 180.322 34.102 179.8 34.534 179.548C34.678 179.332 34.93 179.152 35.29 179.008C35.65 178.828 35.992 178.702 36.316 178.63C36.676 178.522 36.856 178.468 36.856 178.468C37.144 178.54 37.306 178.774 37.342 179.17C37.378 179.53 37.522 179.89 37.774 180.25C37.846 180.394 38.008 180.61 38.26 180.898C38.512 181.186 38.62 181.42 38.584 181.6C38.584 181.708 38.422 181.96 38.098 182.356C37.774 182.716 37.432 183.076 37.072 183.436C36.712 183.796 36.442 184.066 36.262 184.246C35.794 184.642 35.056 185.344 34.048 186.352C33.076 187.324 32.068 188.386 31.024 189.538C29.98 190.654 29.098 191.662 28.378 192.562C26.794 194.398 25.372 195.982 24.112 197.314C22.888 198.646 22.132 199.438 21.844 199.69C21.808 199.762 21.574 199.816 21.142 199.852C20.71 199.852 20.404 199.996 20.224 200.284L17.956 200.014ZM14.932 218.104C14.788 218.068 14.482 217.906 14.014 217.618C13.582 217.33 13.186 217.06 12.826 216.808C12.574 216.52 12.412 216.214 12.34 215.89C12.304 215.566 12.358 215.134 12.502 214.594C12.646 214.054 12.844 213.298 13.096 212.326C13.132 211.498 13.294 210.49 13.582 209.302C13.906 208.114 14.284 207.124 14.716 206.332C14.716 205.936 14.806 205.396 14.986 204.712C15.166 204.028 15.382 203.326 15.634 202.606C15.922 201.85 16.174 201.202 16.39 200.662L17.362 197.854L19.522 196.018L22.33 197.962C22.186 198.178 22.06 198.43 21.952 198.718C21.844 199.006 21.7 199.492 21.52 200.176C21.34 200.86 21.07 201.922 20.71 203.362C20.422 204.334 20.098 205.378 19.738 206.494C19.414 207.61 19.108 208.654 18.82 209.626C18.532 210.598 18.28 211.39 18.064 212.002C17.632 213.622 17.236 214.9 16.876 215.836C16.552 216.772 16.228 217.402 15.904 217.726C15.616 218.086 15.292 218.212 14.932 218.104ZM36.2261 213.622C35.7581 213.622 35.3801 213.532 35.0921 213.352C34.8401 213.172 34.5161 212.92 34.1201 212.596C33.4361 211.876 32.8781 211.102 32.4461 210.274C32.0501 209.446 31.9061 208.726 32.0141 208.114C32.1221 207.826 32.1581 207.556 32.1221 207.304C32.1221 207.016 32.1221 206.872 32.1221 206.872C31.9421 206.692 31.8881 206.584 31.9601 206.548C32.0321 206.476 32.1041 206.368 32.1761 206.224C32.3921 206.224 32.4641 206.026 32.3921 205.63C32.3201 205.342 32.4281 204.73 32.7161 203.794C33.0401 202.822 33.4721 201.904 34.0121 201.04C34.2281 200.68 34.5521 200.212 34.9841 199.636C35.4161 199.024 35.8841 198.43 36.3881 197.854C36.9281 197.242 37.4141 196.756 37.8461 196.396C38.7461 195.64 39.5741 195.028 40.3301 194.56C41.1221 194.092 41.9141 193.768 42.7061 193.588C43.4981 193.408 44.3081 193.318 45.1361 193.318C46.0001 193.318 46.7021 193.606 47.2421 194.182C48.0701 194.542 48.6461 195.028 48.9701 195.64C49.3301 196.252 49.5641 197.044 49.6721 198.016C49.7801 199.096 49.6721 200.428 49.3481 202.012C49.0241 203.56 48.1421 205.36 46.7021 207.412C45.8021 208.708 44.9201 209.716 44.0561 210.436C43.1921 211.156 42.2381 211.822 41.1941 212.434C40.4381 212.938 39.6281 213.244 38.7641 213.352C37.9001 213.46 37.0541 213.55 36.2261 213.622ZM41.7341 207.034C42.5261 206.35 43.0841 205.594 43.4081 204.766C43.7681 203.938 44.1461 202.966 44.5421 201.85C44.6861 201.634 44.7761 201.274 44.8121 200.77C44.8841 200.266 44.9021 199.78 44.8661 199.312C44.8301 198.808 44.7041 198.52 44.4881 198.448C44.1641 198.196 43.8401 198.142 43.5161 198.286C43.1921 198.394 42.7781 198.628 42.2741 198.988C41.1941 199.888 40.1861 200.932 39.2501 202.12C38.3501 203.272 37.7201 204.694 37.3601 206.386C37.2521 207.286 37.3421 207.97 37.6301 208.438C37.9541 208.87 38.4581 208.996 39.1421 208.816C39.8621 208.6 40.7261 208.006 41.7341 207.034ZM67.4006 214.324C67.1486 214.468 66.8066 214.414 66.3746 214.162C65.9786 213.91 65.5826 213.532 65.1866 213.028C64.9346 212.596 64.7366 212.164 64.5926 211.732C64.4846 211.264 64.4306 210.58 64.4306 209.68C64.4666 208.96 64.4666 208.474 64.4306 208.222C64.4306 207.934 64.2686 207.916 63.9446 208.168C63.6566 208.384 63.0626 208.924 62.1626 209.788C61.2626 210.688 60.3986 211.462 59.5706 212.11C58.7786 212.722 58.1306 213.01 57.6266 212.974C57.3746 212.974 57.0326 212.812 56.6006 212.488C56.1686 212.164 55.7546 211.768 55.3586 211.3C54.9626 210.796 54.6746 210.328 54.4946 209.896C54.2786 209.032 54.2606 207.916 54.4406 206.548C54.6566 205.18 54.9986 203.758 55.4666 202.282C55.9346 200.77 56.4566 199.366 57.0326 198.07C57.6446 196.738 58.2386 195.676 58.8146 194.884C59.4266 194.056 59.9486 193.66 60.3806 193.696C60.9926 193.768 61.5146 194.074 61.9466 194.614C62.4146 195.118 62.7746 195.676 63.0266 196.288C63.1706 196.54 63.2246 196.756 63.1886 196.936C63.1886 197.116 63.0446 197.332 62.7566 197.584C62.4326 198.016 62.0366 198.646 61.5686 199.474C61.1366 200.266 60.6866 201.13 60.2186 202.066C59.7866 203.002 59.3906 203.902 59.0306 204.766C58.7066 205.594 58.4726 206.278 58.3286 206.818C58.1846 207.358 58.1846 207.628 58.3286 207.628C58.8326 207.628 59.3006 207.502 59.7326 207.25C60.1646 206.962 60.7046 206.512 61.3526 205.9C62.1086 205.144 62.7746 204.388 63.3506 203.632C63.9266 202.84 64.5206 201.94 65.1326 200.932C65.6006 200.212 66.0866 199.42 66.5906 198.556C67.1306 197.692 67.4726 197.08 67.6166 196.72C68.1206 195.784 68.4986 195.082 68.7506 194.614C69.0026 194.146 69.3086 193.858 69.6686 193.75C69.8486 193.75 70.1006 193.75 70.4246 193.75C70.7486 193.75 70.9106 193.75 70.9106 193.75C71.1266 193.786 71.3786 193.948 71.6666 194.236C71.9546 194.38 72.2426 194.578 72.5306 194.83C72.8546 195.082 73.0166 195.298 73.0166 195.478C72.8726 195.838 72.6386 196.378 72.3146 197.098C72.0266 197.782 71.8106 198.286 71.6666 198.61C70.9826 200.158 70.3166 201.688 69.6686 203.2C69.0566 204.676 68.6066 206.188 68.3186 207.736C68.2466 208.24 68.2286 208.834 68.2646 209.518C68.3366 210.166 68.4446 210.634 68.5886 210.922C68.6966 211.138 68.8226 211.39 68.9666 211.678C69.1466 211.93 69.3446 212.146 69.5606 212.326C69.8846 212.542 69.8666 212.812 69.5066 213.136C69.1826 213.46 68.7686 213.748 68.2646 214C67.7966 214.216 67.5086 214.324 67.4006 214.324ZM77.4509 212.542C77.1269 212.29 76.7669 211.966 76.3709 211.57C76.0109 211.174 75.8849 210.616 75.9929 209.896C76.1009 208.888 76.2449 208.006 76.4249 207.25C76.6049 206.458 76.8209 205.558 77.0729 204.55C77.1449 204.118 77.3249 203.38 77.6129 202.336C77.9369 201.292 78.3149 200.158 78.7469 198.934C79.1789 197.71 79.6289 196.558 80.0969 195.478C80.5649 194.362 80.9789 193.534 81.3389 192.994C81.7349 192.634 82.3109 192.454 83.0669 192.454C83.8589 192.454 84.3989 192.598 84.6869 192.886C85.0829 193.21 85.2089 193.786 85.0649 194.614C84.9209 195.406 84.4169 196.648 83.5529 198.34C83.3729 198.772 83.1389 199.24 82.8509 199.744C82.5989 200.212 82.4189 200.608 82.3109 200.932C82.2029 201.22 82.2389 201.346 82.4189 201.31C82.6349 200.914 83.0309 200.464 83.6069 199.96C84.1829 199.42 84.7949 198.898 85.4429 198.394C86.0909 197.89 86.7029 197.44 87.2789 197.044C87.8549 196.648 88.2509 196.396 88.4669 196.288C88.7549 196.108 89.0789 195.964 89.4389 195.856C89.8349 195.712 90.1049 195.604 90.2489 195.532C91.0769 195.136 91.9769 194.992 92.9489 195.1C93.9569 195.172 94.5689 195.478 94.7849 196.018C94.8209 196.306 94.9289 196.522 95.1089 196.666C95.3249 196.81 95.4329 196.882 95.4329 196.882C95.5769 196.882 95.6489 196.936 95.6489 197.044C95.6849 197.152 95.7029 197.206 95.7029 197.206C95.7029 197.458 95.4509 197.818 94.9469 198.286C94.4789 198.754 93.9569 199.006 93.3809 199.042C92.9129 199.078 92.4989 199.168 92.1389 199.312C91.7789 199.456 91.3469 199.636 90.8429 199.852C89.4749 200.644 88.2329 201.346 87.1169 201.958C86.0369 202.57 84.9209 203.506 83.7689 204.766C83.5169 205.054 83.2469 205.324 82.9589 205.576C82.6709 205.828 82.3829 206.188 82.0949 206.656C81.9149 206.836 81.7349 207.232 81.5549 207.844C81.3749 208.456 81.2129 209.05 81.0689 209.626C80.9609 210.166 80.9069 210.49 80.9069 210.598C80.9069 210.598 80.8529 210.778 80.7449 211.138C80.6369 211.462 80.4569 211.786 80.2049 212.11C79.7729 212.686 79.3409 213.046 78.9089 213.19C78.5129 213.334 78.0269 213.118 77.4509 212.542ZM126.944 215.512C125.792 215.872 124.514 216.106 123.11 216.214C121.742 216.322 120.302 216.232 118.79 215.944C117.278 215.656 115.748 215.134 114.2 214.378C114.164 213.982 114.002 213.622 113.714 213.298C113.462 212.938 113.174 212.74 112.85 212.704C112.706 212.668 112.526 212.488 112.31 212.164C112.13 211.84 111.95 211.588 111.77 211.408C111.662 210.976 111.59 210.616 111.554 210.328C111.554 210.04 111.59 209.662 111.662 209.194C111.734 208.69 111.842 207.988 111.986 207.088C112.166 206.62 112.418 205.918 112.742 204.982C113.102 204.01 113.498 202.948 113.93 201.796C114.398 200.608 114.884 199.456 115.388 198.34C116.684 195.1 117.692 192.562 118.412 190.726C119.168 188.89 119.69 187.522 119.978 186.622C120.266 185.722 120.41 185.074 120.41 184.678C120.41 184.282 120.32 183.886 120.14 183.49C119.924 182.806 119.924 182.194 120.14 181.654C120.392 181.114 120.86 180.718 121.544 180.466C122.228 180.106 123.038 179.728 123.974 179.332C124.91 178.936 125.846 178.594 126.782 178.306C127.718 177.982 128.492 177.784 129.104 177.712C129.608 177.64 130.256 177.64 131.048 177.712C131.84 177.784 132.632 177.91 133.424 178.09C134.252 178.27 134.954 178.486 135.53 178.738C136.106 178.954 136.448 179.206 136.556 179.494C136.556 179.494 136.61 179.512 136.718 179.548C136.826 179.584 136.88 179.602 136.88 179.602C136.88 179.602 136.952 179.62 137.096 179.656C137.24 179.692 137.456 179.854 137.744 180.142C138.14 180.43 138.482 181.006 138.77 181.87C139.058 182.698 139.13 183.382 138.986 183.922C138.986 184.066 139.022 184.3 139.094 184.624C139.202 184.948 139.292 185.308 139.364 185.704C139.544 186.676 139.436 187.756 139.04 188.944C138.644 190.132 137.834 191.392 136.61 192.724C136.178 193.228 135.782 193.714 135.422 194.182C135.098 194.65 134.846 194.866 134.666 194.83C134.306 195.154 134.036 195.514 133.856 195.91C133.676 196.27 133.748 196.486 134.072 196.558C134.072 196.558 134.198 196.738 134.45 197.098C134.702 197.458 135.044 197.89 135.476 198.394C136.16 199.438 136.592 200.68 136.772 202.12C136.988 203.524 136.898 204.874 136.502 206.17C136.25 207.07 135.638 208.132 134.666 209.356C133.694 210.58 132.524 211.75 131.156 212.866C129.824 213.982 128.42 214.864 126.944 215.512ZM121.328 211.192C122.588 211.372 123.758 211.372 124.838 211.192C125.954 210.976 126.98 210.508 127.916 209.788C128.888 209.068 129.77 208.078 130.562 206.818C131.57 205.558 132.056 204.532 132.02 203.74C132.02 202.948 131.714 202.084 131.102 201.148C130.562 200.32 130.058 199.816 129.59 199.636C129.122 199.42 128.6 199.384 128.024 199.528C127.484 199.672 126.8 199.87 125.972 200.122C125.288 200.23 124.514 200.428 123.65 200.716C122.822 201.004 122.066 201.274 121.382 201.526C120.698 201.742 120.248 201.85 120.032 201.85C120.032 201.85 119.924 201.958 119.708 202.174C119.492 202.39 119.276 202.624 119.06 202.876C118.844 203.092 118.718 203.272 118.682 203.416C118.502 203.488 118.322 203.686 118.142 204.01C117.998 204.298 117.872 204.622 117.764 204.982C117.692 205.342 117.638 205.666 117.602 205.954C117.602 206.242 117.638 206.386 117.71 206.386C117.89 206.422 117.872 206.71 117.656 207.25C117.476 207.79 117.35 208.24 117.278 208.6C116.99 209.464 117.278 210.094 118.142 210.49C119.042 210.886 120.104 211.12 121.328 211.192ZM122.084 196.828C122.372 196.792 122.858 196.648 123.542 196.396C124.226 196.108 124.856 195.892 125.432 195.748C126.728 195.352 127.916 194.812 128.996 194.128C130.076 193.444 131.012 192.634 131.804 191.698C132.632 190.762 133.244 189.718 133.64 188.566C133.856 188.17 134.018 187.576 134.126 186.784C134.234 185.956 134.252 185.362 134.18 185.002V184.57C133.928 183.886 133.406 183.4 132.614 183.112C131.858 182.824 130.94 182.734 129.86 182.842C128.78 182.914 127.628 183.184 126.404 183.652C125.9 183.904 125.594 184.282 125.486 184.786C125.378 185.254 125.234 185.902 125.054 186.73C124.91 187.63 124.73 188.296 124.514 188.728C124.334 189.16 124.136 189.736 123.92 190.456C123.884 190.6 123.794 190.726 123.65 190.834C123.506 190.942 123.434 191.122 123.434 191.374C123.434 191.374 123.308 191.626 123.056 192.13C122.84 192.634 122.642 193.192 122.462 193.804C122.21 194.416 122.012 194.956 121.868 195.424C121.76 195.892 121.706 196.126 121.706 196.126C121.706 196.126 121.724 196.288 121.76 196.612C121.832 196.936 121.94 197.008 122.084 196.828ZM174.179 217.726C173.927 217.726 173.549 217.618 173.045 217.402C172.541 217.222 172.145 216.7 171.857 215.836C171.569 215.08 171.407 214 171.371 212.596C171.371 211.156 171.443 209.626 171.587 208.006C171.731 206.35 171.857 204.82 171.965 203.416C172.073 202.948 172.127 202.498 172.127 202.066C172.127 201.598 172.091 201.202 172.019 200.878C171.983 200.698 171.983 200.482 172.019 200.23C172.055 199.942 172.091 199.708 172.127 199.528C172.235 199.168 172.289 198.808 172.289 198.448C172.325 198.088 172.379 197.71 172.451 197.314C172.631 196.918 172.757 196.522 172.829 196.126C172.901 195.73 172.919 195.352 172.883 194.992C173.027 194.452 173.153 193.984 173.261 193.588C173.405 193.156 173.477 192.868 173.477 192.724C173.441 192.544 173.405 192.328 173.369 192.076C173.369 191.824 173.333 191.59 173.261 191.374C173.441 190.87 173.639 190.186 173.855 189.322C174.071 188.458 174.251 187.684 174.395 187C174.575 186.28 174.665 185.92 174.665 185.92C174.665 185.92 174.503 186.226 174.179 186.838C173.855 187.414 173.441 188.152 172.937 189.052C172.433 189.952 171.893 190.834 171.317 191.698C170.165 193.57 169.139 195.046 168.239 196.126C167.375 197.17 166.637 198.088 166.025 198.88C165.413 199.672 164.891 200.644 164.459 201.796C164.315 202.192 163.973 202.75 163.433 203.47C162.929 204.154 162.461 204.694 162.029 205.09C161.669 205.378 161.201 205.666 160.625 205.954C160.085 206.206 159.473 206.368 158.789 206.44C157.493 206.62 156.665 206.152 156.305 205.036C155.981 203.884 155.783 202.336 155.711 200.392C155.747 199.564 155.783 198.556 155.819 197.368C155.855 196.18 155.945 195.136 156.089 194.236C156.161 193.588 156.215 192.904 156.251 192.184C156.287 191.464 156.305 190.87 156.305 190.402C156.341 189.898 156.359 189.646 156.359 189.646C156.359 189.646 156.233 189.898 155.981 190.402C155.729 190.906 155.513 191.392 155.333 191.86C155.117 192.436 154.883 193.084 154.631 193.804C154.379 194.524 154.199 194.956 154.091 195.1C153.911 195.46 153.641 196.126 153.281 197.098C152.957 198.07 152.597 199.06 152.201 200.068C151.769 201.436 151.373 202.57 151.013 203.47C150.689 204.37 150.383 205.162 150.095 205.846C149.807 206.494 149.537 207.124 149.285 207.736C149.069 208.348 148.817 209.068 148.529 209.896C148.169 210.688 147.845 211.444 147.557 212.164C147.269 212.884 147.035 213.406 146.855 213.73C146.783 213.874 146.603 214.216 146.315 214.756C146.027 215.332 145.721 215.854 145.397 216.322C144.677 217.114 144.119 217.546 143.723 217.618C143.363 217.69 142.769 217.438 141.941 216.862C141.509 216.394 141.221 215.836 141.077 215.188C140.969 214.576 141.203 213.676 141.779 212.488C142.211 211.588 142.661 210.706 143.129 209.842C143.597 208.978 144.029 208.186 144.425 207.466C144.857 206.206 145.271 205.072 145.667 204.064C146.063 203.02 146.549 201.724 147.125 200.176C147.665 198.772 148.133 197.548 148.529 196.504C148.925 195.424 149.249 194.56 149.501 193.912C149.753 193.264 149.897 192.886 149.933 192.778C149.969 192.598 150.023 192.436 150.095 192.292C150.167 192.112 150.275 191.842 150.419 191.482C150.491 191.23 150.635 190.906 150.851 190.51C151.067 190.078 151.211 189.772 151.283 189.592C151.391 189.304 151.463 189.088 151.499 188.944C151.571 188.764 151.607 188.602 151.607 188.458C151.571 188.35 151.607 188.278 151.715 188.242C151.859 188.206 151.931 188.188 151.931 188.188C152.003 188.008 152.093 187.792 152.201 187.54C152.309 187.288 152.417 187.054 152.525 186.838C152.705 186.37 152.849 186.01 152.957 185.758C153.101 185.47 153.209 185.236 153.281 185.056C153.353 184.984 153.407 184.894 153.443 184.786C153.515 184.642 153.569 184.498 153.605 184.354C153.533 184.066 153.551 183.796 153.659 183.544C153.767 183.292 153.893 183.058 154.037 182.842C154.109 182.734 154.199 182.644 154.307 182.572C154.415 182.464 154.505 182.374 154.577 182.302C154.577 182.158 154.613 181.996 154.685 181.816C154.757 181.6 154.865 181.384 155.009 181.168C155.045 181.096 155.189 180.862 155.441 180.466C155.693 180.07 155.963 179.638 156.251 179.17C156.575 178.702 156.845 178.324 157.061 178.036C157.601 177.496 158.177 177.298 158.789 177.442C159.401 177.55 160.049 177.946 160.733 178.63C161.165 179.098 161.507 179.566 161.759 180.034C162.047 180.466 162.065 180.7 161.813 180.736C161.813 180.736 161.777 180.754 161.705 180.79C161.669 180.826 161.651 180.916 161.651 181.06C161.651 181.06 161.669 181.24 161.705 181.6C161.777 181.924 161.723 182.338 161.543 182.842C161.255 183.85 161.075 184.786 161.003 185.65C160.931 186.514 160.913 187.234 160.949 187.81C160.985 188.35 161.003 188.692 161.003 188.836C161.003 188.98 160.985 189.142 160.949 189.322C160.913 189.466 160.769 189.646 160.517 189.862C160.517 189.862 160.517 189.916 160.517 190.024C160.517 190.132 160.499 190.276 160.463 190.456C160.571 190.78 160.517 191.212 160.301 191.752C160.121 192.256 159.995 192.76 159.923 193.264C159.851 194.38 159.797 195.406 159.761 196.342C159.725 197.242 159.725 198.016 159.761 198.664C159.833 199.276 159.959 199.744 160.139 200.068C160.391 199.78 160.661 199.402 160.949 198.934C161.237 198.466 161.615 197.908 162.083 197.26C162.335 196.864 162.587 196.486 162.839 196.126C163.091 195.73 163.379 195.298 163.703 194.83C164.027 194.362 164.405 193.804 164.837 193.156C165.269 192.508 165.809 191.698 166.457 190.726C167.033 189.898 167.555 189.124 168.023 188.404C168.527 187.648 168.887 187.108 169.103 186.784C169.319 186.676 169.481 186.514 169.589 186.298C169.733 186.082 169.805 185.974 169.805 185.974C169.697 185.866 169.841 185.488 170.237 184.84C170.669 184.156 171.227 183.364 171.911 182.464C172.595 181.564 173.261 180.754 173.909 180.034C174.809 179.206 175.475 178.648 175.907 178.36C176.339 178.036 176.735 177.946 177.095 178.09C177.455 178.198 177.923 178.504 178.499 179.008C178.931 179.332 179.309 179.764 179.633 180.304C179.957 180.844 180.155 181.33 180.227 181.762C180.335 182.158 180.281 182.356 180.065 182.356C180.029 182.392 180.011 182.446 180.011 182.518C180.011 182.59 180.065 182.662 180.173 182.734C180.173 182.734 180.155 182.842 180.119 183.058C180.083 183.238 180.011 183.58 179.903 184.084C179.831 184.552 179.705 185.182 179.525 185.974C179.381 186.73 179.237 187.468 179.093 188.188C178.949 188.8 178.805 189.466 178.661 190.186C178.553 190.906 178.463 191.428 178.391 191.752C178.283 192.22 178.193 192.688 178.121 193.156C178.049 193.588 177.977 194.056 177.905 194.56C177.797 195.316 177.689 196.144 177.581 197.044C177.473 197.944 177.347 198.88 177.203 199.852C177.095 200.824 176.987 201.796 176.879 202.768C176.771 203.74 176.663 204.694 176.555 205.63C176.519 206.098 176.465 206.71 176.393 207.466C176.357 208.186 176.321 208.96 176.285 209.788C176.285 210.58 176.285 211.354 176.285 212.11C176.321 212.866 176.375 213.514 176.447 214.054C176.519 214.666 176.573 215.152 176.609 215.512C176.681 215.872 176.699 216.106 176.663 216.214C176.375 216.718 175.979 217.096 175.475 217.348C175.007 217.6 174.575 217.726 174.179 217.726ZM188.949 216.214C188.697 215.818 188.265 215.566 187.653 215.458C187.041 215.35 186.105 215.332 184.845 215.404C184.341 215.476 183.819 215.44 183.279 215.296C182.739 215.152 182.307 214.936 181.983 214.648C181.659 214.36 181.533 214.072 181.605 213.784C181.641 213.352 182.145 212.884 183.117 212.38C184.089 211.876 185.349 211.606 186.897 211.57L189.165 211.516L189.705 210.436C189.849 210.04 189.957 209.608 190.029 209.14C190.137 208.672 190.317 208.024 190.569 207.196C190.713 206.692 190.929 205.99 191.217 205.09C191.505 204.19 191.811 203.236 192.135 202.228C192.459 201.184 192.747 200.248 192.999 199.42C193.251 198.592 193.413 198.016 193.485 197.692C193.629 197.368 193.827 196.828 194.079 196.072C194.331 195.28 194.565 194.488 194.781 193.696C195.033 192.868 195.195 192.274 195.267 191.914C196.203 189.07 196.815 187.09 197.103 185.974C197.391 184.822 197.463 184.228 197.319 184.192C197.175 184.192 196.833 184.21 196.293 184.246C195.753 184.282 195.159 184.336 194.511 184.408C193.863 184.444 193.287 184.498 192.783 184.57C192.279 184.642 191.973 184.714 191.865 184.786C191.685 185.038 191.379 185.002 190.947 184.678C190.515 184.318 190.245 183.958 190.137 183.598C190.101 183.274 190.101 182.968 190.137 182.68C190.173 182.392 190.281 182.194 190.461 182.086C190.713 181.87 191.235 181.636 192.027 181.384C192.819 181.096 193.701 180.844 194.673 180.628C195.681 180.412 196.599 180.25 197.427 180.142C198.039 180.07 198.651 179.944 199.263 179.764C199.875 179.548 200.361 179.296 200.721 179.008C201.045 178.9 201.351 178.81 201.639 178.738C201.963 178.666 202.287 178.648 202.611 178.684C202.899 178.864 203.385 178.954 204.069 178.954C204.789 178.954 205.545 178.936 206.337 178.9C208.353 178.72 209.757 178.792 210.549 179.116C211.377 179.404 211.917 179.8 212.169 180.304C212.349 180.988 212.313 181.564 212.061 182.032C211.809 182.464 211.377 182.662 210.765 182.626C210.441 182.698 209.991 182.77 209.415 182.842C208.839 182.878 208.083 182.914 207.147 182.95C204.771 183.166 203.493 183.418 203.313 183.706C203.169 183.85 203.043 183.994 202.935 184.138C202.863 184.282 202.755 184.444 202.611 184.624C202.647 184.768 202.557 185.2 202.341 185.92C202.161 186.604 201.927 187.342 201.639 188.134C201.495 188.602 201.279 189.268 200.991 190.132C200.703 190.996 200.397 191.896 200.073 192.832C199.785 193.732 199.515 194.56 199.263 195.316C199.011 196.036 198.831 196.522 198.723 196.774C198.579 197.098 198.453 197.458 198.345 197.854C198.273 198.214 198.219 198.484 198.183 198.664C197.679 200.428 197.247 201.904 196.887 203.092C196.563 204.28 196.275 205.324 196.023 206.224C195.771 207.088 195.537 207.934 195.321 208.762C195.105 209.554 194.853 210.454 194.565 211.462C194.565 211.462 194.871 211.444 195.483 211.408C196.095 211.336 196.869 211.264 197.805 211.192C199.497 211.012 200.649 210.904 201.261 210.868C201.873 210.832 202.233 210.886 202.341 211.03C202.449 211.138 202.557 211.354 202.665 211.678C203.385 212.65 203.331 213.46 202.503 214.108C201.711 214.756 200.307 215.062 198.291 215.026C196.419 215.098 195.033 215.152 194.133 215.188C193.269 215.26 192.711 215.35 192.459 215.458C192.207 215.566 192.081 215.746 192.081 215.998C192.117 216.574 191.757 216.916 191.001 217.024C190.281 217.168 189.597 216.898 188.949 216.214ZM229.631 217.888C228.083 216.88 227.165 215.872 226.877 214.864C226.625 213.856 226.985 213.046 227.957 212.434C228.173 212.29 228.587 212.272 229.199 212.38C229.847 212.488 230.333 212.704 230.657 213.028C231.377 213.676 232.187 214.072 233.087 214.216C234.023 214.396 235.157 214.306 236.489 213.946C238.001 213.478 239.153 212.902 239.945 212.218C240.773 211.498 241.691 210.526 242.699 209.302C243.455 208.33 243.977 207.376 244.265 206.44C244.589 205.504 244.733 204.658 244.697 203.902C244.697 203.11 244.517 202.516 244.157 202.12C243.257 200.86 242.141 199.996 240.809 199.528C239.477 199.024 237.731 199.06 235.571 199.636C235.319 199.672 234.941 199.744 234.437 199.852C233.933 199.96 233.483 200.068 233.087 200.176C232.691 200.248 232.475 200.284 232.439 200.284C232.187 200.356 231.989 200.392 231.845 200.392C231.701 200.392 231.521 200.572 231.305 200.932C231.125 201.256 230.837 201.958 230.441 203.038C230.045 204.082 229.451 205.702 228.659 207.898C227.903 210.094 227.255 211.66 226.715 212.596C226.211 213.496 225.761 213.91 225.365 213.838C224.969 213.73 224.519 213.334 224.015 212.65C223.727 212.146 223.403 211.588 223.043 210.976C222.719 210.364 222.737 209.734 223.097 209.086C223.277 208.762 223.421 208.474 223.529 208.222C223.637 207.934 223.781 207.448 223.961 206.764C224.141 206.224 224.483 205.288 224.987 203.956C225.527 202.588 226.157 201.004 226.877 199.204C227.597 197.368 228.353 195.478 229.145 193.534C229.937 191.59 230.693 189.754 231.413 188.026C232.169 186.298 232.799 184.84 233.303 183.652C233.807 182.536 234.113 181.726 234.221 181.222C234.329 180.718 234.293 180.448 234.113 180.412C234.113 180.232 234.059 180.07 233.951 179.926C233.843 179.746 233.807 179.584 233.843 179.44C233.843 179.296 234.149 179.098 234.761 178.846C235.409 178.594 236.093 178.36 236.813 178.144C237.533 177.928 238.055 177.856 238.379 177.928C238.559 177.928 238.775 177.928 239.027 177.928C239.279 177.892 239.405 177.802 239.405 177.658C239.513 177.658 239.855 177.622 240.431 177.55C241.007 177.478 241.637 177.478 242.321 177.55C244.733 177.766 246.713 178.468 248.261 179.656C249.809 180.808 250.565 182.662 250.529 185.218C250.493 185.83 250.241 186.622 249.773 187.594C249.305 188.566 248.711 189.538 247.991 190.51C247.307 191.482 246.569 192.328 245.777 193.048C245.309 193.444 244.805 193.858 244.265 194.29C243.761 194.686 243.311 195.028 242.915 195.316C242.555 195.568 242.375 195.694 242.375 195.694C242.375 195.694 242.519 195.748 242.807 195.856C243.095 195.964 243.401 196.072 243.725 196.18C245.381 196.792 246.677 197.566 247.613 198.502C248.585 199.438 249.269 200.734 249.665 202.39C249.809 202.93 249.809 203.596 249.665 204.388C249.557 205.18 249.395 205.972 249.179 206.764C248.963 207.52 248.729 208.168 248.477 208.708C248.225 208.96 248.027 209.23 247.883 209.518C247.739 209.77 247.667 209.896 247.667 209.896C247.667 209.968 247.523 210.256 247.235 210.76C246.947 211.228 246.605 211.75 246.209 212.326C245.813 212.902 245.435 213.406 245.075 213.838C244.715 214.126 244.193 214.522 243.509 215.026C242.861 215.566 242.141 216.088 241.349 216.592C240.593 217.096 239.873 217.474 239.189 217.726C238.181 218.158 237.047 218.446 235.787 218.59C234.563 218.77 233.393 218.788 232.277 218.644C231.161 218.536 230.279 218.284 229.631 217.888ZM233.519 195.478C233.519 195.478 233.807 195.424 234.383 195.316C234.995 195.172 235.661 195.028 236.381 194.884C237.101 194.704 237.641 194.542 238.001 194.398C238.181 194.29 238.433 194.146 238.757 193.966C239.117 193.786 239.477 193.516 239.837 193.156C240.341 192.688 240.881 192.166 241.457 191.59C242.033 190.978 242.591 190.33 243.131 189.646C243.707 188.962 244.193 188.224 244.589 187.432C245.417 186.136 245.867 185.2 245.939 184.624C246.011 184.048 245.813 183.526 245.345 183.058C245.021 182.662 244.571 182.374 243.995 182.194C243.419 181.978 242.789 181.87 242.105 181.87C241.457 181.834 240.827 181.906 240.215 182.086C239.747 182.23 239.387 182.41 239.135 182.626C238.883 182.806 238.757 183.094 238.757 183.49C238.757 183.814 238.649 184.156 238.433 184.516C238.253 184.84 238.073 185.092 237.893 185.272C237.857 185.524 237.731 185.776 237.515 186.028C237.335 186.244 237.245 186.352 237.245 186.352C237.245 186.496 237.011 186.946 236.543 187.702C236.111 188.422 235.643 189.466 235.139 190.834C234.491 192.382 234.059 193.498 233.843 194.182C233.627 194.866 233.519 195.298 233.519 195.478ZM267.238 213.892C266.878 213.532 266.59 213.046 266.374 212.434C266.158 211.786 265.942 211.048 265.726 210.22C265.654 209.932 265.618 209.608 265.618 209.248C265.654 208.888 265.654 208.6 265.618 208.384C265.51 208.636 265.33 208.96 265.078 209.356C264.862 209.752 264.646 210.04 264.43 210.22C264.286 210.364 263.962 210.652 263.458 211.084C262.954 211.48 262.45 211.804 261.946 212.056C260.758 212.812 259.696 213.172 258.76 213.136C257.86 213.064 257.068 212.596 256.384 211.732C255.808 211.264 255.34 210.67 254.98 209.95C254.62 209.23 254.548 208.366 254.764 207.358C254.836 206.098 255.016 204.874 255.304 203.686C255.592 202.462 256.186 200.842 257.086 198.826C257.842 197.35 258.418 196.198 258.814 195.37C259.21 194.542 259.462 194.056 259.57 193.912C260.11 193.732 260.776 193.75 261.568 193.966C262.36 194.146 262.792 194.488 262.864 194.992C263.08 195.352 263.08 196.036 262.864 197.044C262.648 198.016 262.216 199.132 261.568 200.392C261.064 201.616 260.578 202.804 260.11 203.956C259.678 205.108 259.408 206.08 259.3 206.872C259.228 207.664 259.444 208.15 259.948 208.33C260.272 208.51 260.74 208.492 261.352 208.276C262 208.06 262.756 207.412 263.62 206.332C264.484 205.252 265.402 203.542 266.374 201.202C266.662 200.482 266.878 199.852 267.022 199.312C267.166 198.736 267.256 198.106 267.292 197.422C267.22 196.99 267.328 196.54 267.616 196.072C267.94 195.604 268.318 195.244 268.75 194.992C268.894 194.812 269.092 194.65 269.344 194.506C269.596 194.326 269.758 194.326 269.83 194.506L270.694 194.452C270.838 194.416 271 194.56 271.18 194.884C271.36 195.208 271.54 195.442 271.72 195.586C272.116 195.91 272.296 196.612 272.26 197.692C272.224 198.772 271.792 200.284 270.964 202.228C270.28 203.704 269.812 204.82 269.56 205.576C269.344 206.332 269.218 207.07 269.182 207.79C269.182 208.438 269.236 208.996 269.344 209.464C269.452 209.896 269.776 210.346 270.316 210.814C270.712 211.066 270.928 211.498 270.964 212.11C271.036 212.686 271.054 213.19 271.018 213.622C270.946 213.946 270.658 214.162 270.154 214.27C269.686 214.414 269.164 214.45 268.588 214.378C268.048 214.306 267.598 214.144 267.238 213.892ZM291.436 215.026C290.968 215.134 290.5 215.008 290.032 214.648C289.6 214.324 289.294 213.964 289.114 213.568C288.898 212.992 288.754 212.452 288.682 211.948C288.646 211.408 288.61 210.796 288.574 210.112L288.52 208.276L286.306 210.274C285.082 211.426 283.93 212.254 282.85 212.758C281.806 213.226 280.852 213.46 279.988 213.46C279.592 213.388 279.106 213.136 278.53 212.704C277.99 212.236 277.486 211.732 277.018 211.192C276.586 210.616 276.28 210.148 276.1 209.788C275.884 209.284 275.812 208.582 275.884 207.682C275.992 206.782 276.208 205.792 276.532 204.712C276.892 203.632 277.324 202.57 277.828 201.526C278.368 200.482 278.98 199.582 279.664 198.826C280.852 197.026 282.328 195.91 284.092 195.478C285.856 195.01 287.422 195.154 288.79 195.91C289.438 196.234 289.906 196.36 290.194 196.288C290.482 196.216 290.662 195.982 290.734 195.586C290.878 195.01 291.04 194.47 291.22 193.966C291.4 193.462 291.652 192.706 291.976 191.698C292.876 188.962 293.65 186.82 294.298 185.272C294.982 183.724 295.594 182.374 296.134 181.222C296.53 180.394 296.926 179.818 297.322 179.494C297.718 179.17 298.06 179.026 298.348 179.062C298.744 179.062 299.23 179.206 299.806 179.494C300.418 179.782 300.814 180.178 300.994 180.682C301.138 181.006 301.192 181.348 301.156 181.708C301.156 182.068 301.048 182.446 300.832 182.842C300.364 183.706 299.806 184.858 299.158 186.298C298.546 187.702 297.916 189.25 297.268 190.942C296.656 192.634 296.08 194.308 295.54 195.964C295 197.62 294.55 199.078 294.19 200.338C293.974 201.13 293.794 202.138 293.65 203.362C293.542 204.586 293.452 205.846 293.38 207.142C293.344 208.402 293.344 209.536 293.38 210.544C293.416 211.516 293.47 212.146 293.542 212.434C293.758 213.154 293.758 213.694 293.542 214.054C293.326 214.414 293.02 214.648 292.624 214.756C292.228 214.9 291.832 214.99 291.436 215.026ZM282.526 208.492C283.03 208.312 283.48 208.096 283.876 207.844C284.272 207.592 284.74 207.268 285.28 206.872C286.36 206.044 287.134 205.324 287.602 204.712C288.106 204.1 288.502 203.344 288.79 202.444C288.97 201.904 288.97 201.436 288.79 201.04C288.646 200.644 288.376 200.266 287.98 199.906C287.584 199.582 287.08 199.456 286.468 199.528C285.856 199.564 285.154 199.942 284.362 200.662C283.498 201.454 282.76 202.372 282.148 203.416C281.536 204.46 281.032 205.954 280.636 207.898C280.564 208.258 280.69 208.51 281.014 208.654C281.338 208.798 281.842 208.744 282.526 208.492ZM316.025 213.946C315.485 213.982 314.981 214 314.513 214C314.081 214 313.739 213.928 313.487 213.784C312.839 213.244 312.407 212.812 312.191 212.488C312.011 212.164 311.921 211.804 311.921 211.408C311.957 210.904 311.975 210.4 311.975 209.896C311.975 209.356 311.975 208.942 311.975 208.654C311.831 208.51 311.543 208.672 311.111 209.14C310.679 209.608 310.175 210.058 309.599 210.49C308.483 211.75 307.493 212.668 306.629 213.244C305.765 213.784 304.973 214.09 304.253 214.162C303.533 214.27 302.813 214.288 302.093 214.216C301.445 214.144 300.869 213.82 300.365 213.244C299.897 212.668 299.537 211.966 299.285 211.138C299.069 210.31 298.997 209.5 299.069 208.708C299.249 207.232 299.573 205.9 300.041 204.712C300.509 203.488 301.211 202.21 302.147 200.878C302.579 200.302 303.155 199.672 303.875 198.988C304.631 198.304 305.441 197.674 306.305 197.098C307.169 196.486 307.943 196.054 308.627 195.802C309.671 195.334 310.535 195.118 311.219 195.154C311.939 195.19 312.641 195.298 313.325 195.478C313.829 195.73 314.225 195.856 314.513 195.856C314.837 195.856 315.071 195.676 315.215 195.316C315.431 195.028 315.593 194.668 315.701 194.236C315.809 193.804 315.989 193.39 316.241 192.994L317.429 189.484C317.825 188.512 318.293 187.396 318.833 186.136C319.373 184.876 319.985 183.472 320.669 181.924C321.497 180.52 322.199 179.782 322.775 179.71C323.387 179.638 324.017 179.962 324.665 180.682C325.097 181.114 325.331 181.654 325.367 182.302C325.439 182.914 325.277 183.634 324.881 184.462C324.629 184.858 324.359 185.362 324.071 185.974C323.783 186.55 323.441 187.234 323.045 188.026C322.649 188.962 322.235 189.898 321.803 190.834C321.407 191.77 320.993 192.796 320.561 193.912C320.417 194.488 320.219 195.154 319.967 195.91C319.751 196.666 319.571 197.35 319.427 197.962C319.319 198.538 319.193 199.078 319.049 199.582C318.941 200.05 318.815 200.284 318.671 200.284C318.383 200.536 318.113 201.076 317.861 201.904C317.609 202.696 317.393 203.542 317.213 204.442C317.069 205.342 316.943 206.08 316.835 206.656C316.763 207.088 316.709 207.7 316.673 208.492C316.637 209.248 316.619 209.986 316.619 210.706C316.619 211.39 316.619 211.858 316.619 212.11C316.619 212.794 316.565 213.28 316.457 213.568C316.385 213.82 316.241 213.946 316.025 213.946ZM303.821 209.68C304.649 209.68 305.423 209.338 306.143 208.654C306.899 207.934 307.727 207.178 308.627 206.386C309.167 205.846 309.725 205.252 310.301 204.604C310.877 203.92 311.399 203.254 311.867 202.606C312.371 201.958 312.767 201.4 313.055 200.932C313.343 200.464 313.487 200.158 313.487 200.014C313.487 199.834 313.343 199.672 313.055 199.528C312.803 199.384 312.497 199.276 312.137 199.204C311.777 199.096 311.453 199.078 311.165 199.15C310.301 199.402 309.599 199.78 309.059 200.284C308.555 200.788 307.817 201.58 306.845 202.66C305.873 203.848 305.099 204.982 304.523 206.062C303.947 207.142 303.587 208.024 303.443 208.708C303.335 209.356 303.461 209.68 303.821 209.68ZM327.438 226.852C327.294 226.888 327.078 226.834 326.79 226.69C326.538 226.546 326.322 226.294 326.142 225.934C325.962 225.574 325.908 225.106 325.98 224.53C325.836 224.026 325.854 223.396 326.034 222.64C326.25 221.92 326.7 220.84 327.384 219.4C327.744 218.824 328.068 218.14 328.356 217.348C328.68 216.556 329.04 215.764 329.436 214.972C329.616 214.648 329.922 214.09 330.354 213.298C330.822 212.506 331.326 211.57 331.866 210.49C332.442 209.374 332.964 208.222 333.432 207.034C332.496 208.006 331.686 208.924 331.002 209.788C330.354 210.616 329.76 211.282 329.22 211.786C328.716 212.254 328.176 212.47 327.6 212.434C327.132 212.326 326.574 212.02 325.926 211.516C325.278 211.012 324.864 210.454 324.684 209.842C324.54 209.05 324.486 208.042 324.522 206.818C324.594 205.594 324.828 203.74 325.224 201.256C325.512 200.032 325.638 199.096 325.602 198.448C325.602 197.764 325.512 197.26 325.332 196.936C325.152 196.612 324.918 196.324 324.63 196.072C324.162 195.64 324.126 195.172 324.522 194.668C324.918 194.164 325.368 193.786 325.872 193.534C326.628 193.354 327.222 193.318 327.654 193.426C328.122 193.498 328.59 193.804 329.058 194.344C329.346 194.812 329.634 195.316 329.922 195.856C330.21 196.396 330.354 197.17 330.354 198.178C330.354 198.61 330.336 199.096 330.3 199.636C330.264 200.14 330.228 200.608 330.192 201.04C330.156 201.472 330.12 201.814 330.084 202.066C329.724 203.398 329.4 204.55 329.112 205.522C328.824 206.494 328.77 206.98 328.95 206.98C329.67 206.404 330.282 205.846 330.786 205.306C331.326 204.766 331.902 204.118 332.514 203.362C333.126 202.606 333.882 201.616 334.782 200.392C335.106 199.78 335.43 199.186 335.754 198.61C336.078 198.034 336.348 197.44 336.564 196.828C336.78 196.36 337.068 195.874 337.428 195.37C337.788 194.83 338.04 194.542 338.184 194.506C338.364 194.434 338.616 194.452 338.94 194.56C339.264 194.668 339.57 194.794 339.858 194.938C340.182 195.046 340.344 195.136 340.344 195.208C340.38 195.244 340.56 195.28 340.884 195.316C341.208 195.352 341.532 195.388 341.856 195.424C342.18 195.424 342.342 195.478 342.342 195.586C342.342 195.658 342.234 195.928 342.018 196.396C341.838 196.864 341.622 197.386 341.37 197.962C341.118 198.538 340.884 199.06 340.668 199.528C340.488 199.96 340.416 200.212 340.452 200.284C340.524 200.356 340.47 200.626 340.29 201.094C340.11 201.526 339.894 202.012 339.642 202.552C339.426 203.092 339.228 203.578 339.048 204.01C338.688 205.198 338.274 206.386 337.806 207.574C337.338 208.726 336.78 209.878 336.132 211.03C335.916 211.462 335.592 212.128 335.16 213.028C334.764 213.928 334.368 214.81 333.972 215.674C333.612 216.574 333.324 217.258 333.108 217.726C332.964 218.014 332.748 218.464 332.46 219.076C332.208 219.724 331.92 220.426 331.596 221.182C331.308 221.938 331.02 222.64 330.732 223.288C330.444 223.972 330.228 224.494 330.084 224.854C330.012 225.538 329.85 226.042 329.598 226.366C329.274 226.69 328.824 226.852 328.248 226.852C327.708 226.852 327.438 226.852 327.438 226.852Z" fill="white"/>
<path d="M43.7006 229.344C45.0583 229.053 46.9167 228.961 48.2528 228.981C48.6966 228.984 48.5037 229.24 48.8112 229.253C49.3662 229.283 49.8858 229.111 50.4861 229.155C50.6858 229.17 50.4816 229.565 50.6905 229.573C51.7311 229.625 52.8086 229.417 53.869 229.387C59.289 229.222 64.5837 228.873 70.0099 228.582C71.8271 228.484 74.0103 228.642 75.8539 228.349C76.0664 228.315 75.9133 228.001 75.9519 227.971C76.5601 227.512 76.3987 228.183 76.8257 228.237C78.5488 228.447 80.363 228.34 81.9934 228.095C82.6686 227.992 81.9413 227.398 82.6495 227.709C82.6986 227.73 82.5517 228.087 82.7402 228.11C83.167 228.162 83.968 228.043 84.3013 228.046C84.9434 228.055 85.0494 228.044 85.6583 228.006C86.4718 227.957 87.4544 228.062 88.3361 227.924C88.5242 227.894 88.2497 227.558 88.5478 227.477C88.8465 227.397 89.6517 227.374 89.9182 227.44C90.1895 227.506 90.0945 227.79 90.1457 227.851C90.5671 228.362 91.4366 227.559 91.5546 227.533C93.7178 227.08 95.5596 227.393 97.6012 227.272C99.1199 227.181 100.792 226.947 102.237 226.889C103.975 226.819 105.479 226.934 107.161 226.818C107.34 226.807 107.11 226.401 107.328 226.386C109.661 226.224 111.952 226.166 114.283 226.35C114.515 226.369 114.232 226.746 114.465 226.787C115.888 227.027 118.171 227.661 118.946 226.043C119.907 226.07 121.078 226.093 121.952 226.385C122.514 226.573 121.988 226.988 122.661 226.796C122.813 226.754 122.603 226.412 122.831 226.374C123.794 226.216 124.857 226.297 125.813 226.089C126.008 226.046 125.946 225.736 125.999 225.678C126.455 225.21 127.245 225.941 127.415 225.991C128.708 226.364 129.642 226.181 130.842 226.163C131.119 226.16 130.782 225.748 131.048 225.729C132.41 225.64 133.826 225.646 135.171 225.802C135.191 225.804 135.211 225.806 135.231 225.809C135.231 225.809 135.232 225.809 135.232 225.809C135.535 225.847 135.262 226.208 135.408 226.244C136.052 226.398 136.18 225.721 136.789 225.854C136.918 225.881 136.852 226.188 136.876 226.222C137.251 226.741 137.55 225.988 137.642 225.969C138.818 225.717 139.618 226.477 140.743 226.334C140.88 226.316 140.558 225.939 140.946 225.912C143.52 225.73 146.241 225.733 148.789 225.923C149.191 225.952 148.92 226.255 148.946 226.29C149.383 226.83 149.61 226.068 149.737 226.033C150.736 225.781 151.73 226.357 152.369 225.427C156.677 225.5 160.921 224.696 165.26 225.134C165.315 225.139 165.249 225.515 165.358 225.523C166.665 225.62 166.386 225.067 167.181 224.293C167.381 224.099 168.11 224.885 168.178 224.941C168.414 225.15 168.24 225.717 168.316 225.755C168.941 226.049 168.683 224.248 169.472 224.175C169.497 224.176 169.424 224.518 169.493 224.545C169.707 224.631 169.903 224.479 170.119 224.575C170.61 224.797 170.86 225.661 171.516 225.083C171.598 225.008 171.364 223.995 172.084 223.976C172.373 223.969 173.615 223.832 173.979 223.864C174.337 223.897 174.128 224.251 174.154 224.262C175.141 224.608 174.795 224.825 175.335 225.425C175.876 226.024 175.593 224.499 175.771 224.308C175.95 224.118 176.672 224.412 176.856 224.521C177.04 224.629 176.846 224.86 177.006 224.916C178.061 225.282 177.375 224.11 177.683 223.833C178.399 223.18 179.132 224.26 179.85 224.304C180.045 224.316 179.863 224.071 180.032 224.031C180.714 223.872 181.149 224.189 181.899 223.79C182.022 223.725 182.589 222.98 183.039 223.447C183.103 223.514 182.964 223.814 183.263 223.851C183.712 223.906 184.493 223.9 184.956 223.764C185.297 223.664 184.86 223.229 185.309 223.338C185.508 223.386 185.172 223.691 185.544 223.759C185.911 223.828 186.837 223.74 187.187 223.704C187.536 223.667 187.317 223.326 187.343 223.3C187.502 223.149 188.169 222.927 188.228 222.923C190.979 222.681 193.57 223.039 196.23 222.915C196.251 222.914 196.272 222.913 196.292 222.912C196.519 222.9 196.748 222.884 196.979 222.862C197.206 222.841 197.044 222.469 197.079 222.462C197.855 222.284 197.266 223.3 197.824 223.62C197.723 222.859 198.049 222.988 198.604 222.887C198.871 222.838 198.715 222.547 198.739 222.516C199.125 222.055 199.414 222.625 199.489 222.741C199.763 223.167 200.028 222.643 200.216 222.927C200.404 223.209 200.011 223.653 200.541 223.628C200.679 223.349 200.259 222.652 200.656 222.521C202.168 222.03 205.019 222.456 206.236 222.445C207.453 222.437 207.854 222.363 208.566 222.419C209.854 222.517 209.354 222.025 210.133 221.74C210.916 221.454 210.612 222.751 210.745 223.017C210.876 223.283 210.981 222.994 211.132 223.134C211.283 223.275 210.991 223.482 211.326 223.515C211.661 223.549 212.522 223.001 212.619 222.708C212.823 222.089 212.374 221.484 213.258 221.648C213.309 221.657 213.17 222 213.364 222.021C214.912 222.17 216.481 222.068 218.023 222.168C218.234 222.182 218.077 222.56 218.2 222.572C219.484 222.698 218.982 222.125 219.619 221.395C219.538 222.305 219.968 222.822 220.931 222.741C221.51 222.693 221.376 222.313 221.726 222.007C221.83 221.915 222.262 222.145 222.32 221.956C222.511 221.34 222.067 220.708 223.08 220.889C223.124 220.898 223.015 221.234 223.167 221.241C224.148 221.284 224.208 220.657 225.248 220.492C226.064 220.364 227.556 220.603 228.499 220.573C228.575 221.538 229.437 221.228 229.727 220.535C230.335 220.503 230.987 220.403 231.584 220.434C231.789 220.445 231.685 220.731 231.713 220.758C232.152 221.181 232.349 220.521 232.478 220.484C233.864 220.103 235.082 220.45 236.378 219.85C236.424 219.828 236.431 219.186 236.842 219.611C236.87 219.64 236.456 219.977 237.094 219.931C237.737 219.885 238.978 220.086 239.821 219.699C240.023 219.605 240.511 219.045 240.992 219.386C241.056 219.433 241.014 219.616 241.109 219.705C241.416 219.985 241.49 219.349 241.87 219.837C242.252 220.325 242.943 220.633 243.8 220.162C243.828 220.148 243.981 219.64 244.263 219.614C244.713 219.572 245.359 219.593 245.821 219.532C246.042 219.503 245.864 219.227 245.901 219.216C247.397 218.866 248.47 218.998 250.112 218.895C250.412 218.876 251.207 218.382 251.809 218.61C252.476 218.857 252.023 220.318 253.425 219.781C253.995 219.56 254.464 217.759 255.652 218.489C257.636 217.99 259.554 218.152 261.558 217.541C261.647 217.514 261.864 217.025 262.074 217C262.379 216.965 262.604 217.142 262.834 217.121C263.813 217.033 264.614 216.729 265.561 216.605C265.91 216.559 265.823 216.786 266.234 216.731C266.638 216.676 266.873 216.36 267.467 216.395C267.915 216.423 268.414 216.9 268.984 216.863C268.912 216.324 269.323 216.264 269.975 216.005C270.1 215.955 269.928 215.795 269.986 215.762C270.223 215.623 270.454 215.739 270.695 215.59C270.752 215.554 270.722 215.374 270.766 215.335C271.142 214.998 271.87 215.281 271.991 215.329C272.465 215.513 272.663 215.237 273.013 215.277C273.367 215.314 272.895 215.54 273.294 215.526C274.113 215.497 275.194 215.24 275.998 215.055C276.305 214.983 276.042 214.808 276.084 214.792C276.566 214.637 276.924 214.631 277.314 214.463C277.426 214.412 277.513 214.351 277.575 214.272L277.565 214.276C277.618 214.206 277.649 214.129 277.661 214.042C277.779 214.143 277.876 214.208 277.966 214.235C278.048 214.255 278.139 214.289 278.212 214.116C278.252 214.007 278.147 213.859 278.102 213.842C278.048 213.807 278.011 213.802 277.978 213.8C277.911 213.799 277.86 213.824 277.814 213.857C277.614 213.995 277.437 214.236 276.93 214.202C276.855 214.193 276.672 213.785 276.967 213.641C277.116 213.571 277.309 213.545 277.542 213.532C277.657 213.527 277.773 213.517 277.96 213.533C278.01 213.541 278.063 213.541 278.179 213.591C278.238 213.623 278.312 213.647 278.413 213.791C278.509 213.928 278.515 214.141 278.471 214.257C278.403 214.442 278.34 214.485 278.299 214.538C278.254 214.588 278.229 214.615 278.194 214.65C278.149 214.701 278.049 214.891 277.948 215.076C277.931 215.082 277.882 215.107 277.864 215.111C277.79 215.25 277.696 215.4 277.628 215.492C277.595 215.536 277.569 215.566 277.556 215.576C276.951 216.017 276.717 215.198 276.659 215.167C276.143 214.786 275.655 215.486 275.459 215.572C274.679 215.937 273.911 215.974 273.291 216.235C272.859 216.41 272.918 216.98 272.542 217.039C271.402 217.213 270.785 216.499 269.832 217.397C269.617 217.591 269.975 218.179 269.008 217.845C268.952 217.824 268.26 217.476 267.94 217.834C267.9 217.88 267.933 218.067 267.874 218.094C267.489 218.269 267.154 218.175 266.749 218.322C266.329 218.472 265.816 218.676 265.289 218.702C264.963 218.72 264.53 218.425 264.372 218.361C263.928 218.175 263.551 218.669 263.244 218.401C262.935 218.13 263.373 217.573 262.655 217.478C262.708 217.993 262.73 218.527 262.768 219.048C261.311 219.278 259.81 219.351 258.332 219.61C258.147 219.644 258.378 219.899 258.18 219.943C257.333 220.127 256.613 220.031 255.747 220.251C255.07 220.424 254.401 220.849 253.71 221.04C253.199 220.472 252.169 220.847 251.422 220.9C251.157 220.919 251.151 220.744 250.956 220.715C250.22 220.609 250.627 221.136 250.444 221.256C249.656 221.771 249.408 220.47 248.438 220.638C248.387 220.645 247.842 221.445 247.759 221.503C247.236 221.873 247.635 221.268 247.278 221.265C246.621 221.261 246.16 221.149 245.443 221.464C245.233 221.556 244.766 222.084 244.297 221.791C244.236 221.752 244.237 221.506 244.19 221.498C243.343 221.372 243.416 222.137 242.986 222.462C242.556 222.788 241.775 222.355 241.611 222.219C241.181 221.871 241.884 222.01 241.899 221.968C242.087 221.471 241.574 221.62 241.168 221.632C241.02 220.877 240.464 220.992 240.747 221.647C240.779 221.719 241.083 221.607 241.168 221.632C240.904 222.424 240.296 222.609 239.541 221.989C239.186 221.697 239.442 221.272 238.493 221.532C238.062 221.65 238.293 222.165 237.921 222.361C237.066 222.81 235.877 222.446 234.969 222.635C234.641 222.705 234.996 222.966 234.773 223.024C234.177 223.181 233.628 223.017 233.038 223.206C232.985 223.223 233.152 223.526 232.965 223.553C231.547 223.763 230.287 223.703 228.801 223.865C228.081 223.943 226.816 224.268 226.068 224.312C224.772 224.393 223.139 224.067 222.048 224.294C221.335 224.441 221.523 224.766 221.235 225.028C220.677 225.54 219.553 224.833 219.401 224.719C219.397 224.716 220.009 224.576 219.664 224.431C219.441 224.082 219.408 224.717 219.401 224.719C219.301 224.647 218.06 224.682 217.818 224.77C217.687 224.818 217.788 225.139 217.72 225.158C216.083 225.603 214.429 225.834 212.733 225.812C212.703 225.808 212.722 225.431 212.651 225.425C211.671 225.334 211.072 225.839 210.284 226.172C209.495 226.505 208.856 226.459 208.34 225.84C207.733 225.963 206.843 225.731 206.334 225.585C205.825 225.439 205.796 226.184 205.752 226.202C204.397 226.752 203.57 226.371 202.145 226.371C201.454 226.371 200.107 226.536 199.381 226.643C198.795 226.73 198.433 226.566 197.898 226.695C197.825 226.712 197.908 227.043 197.886 227.057C197.296 227.473 197.563 226.649 197.435 226.507C197.07 226.099 196.818 225.842 196.36 225.882C196.336 225.884 196.316 225.886 196.296 225.889C196.19 225.904 196.074 225.934 195.944 225.981C195.772 226.042 195.306 227.23 194.998 227.31C194.598 227.41 194.735 226.984 194.315 227.102C194.279 227.112 194.296 227.371 194.034 227.37C192.82 227.369 191.482 227.289 190.215 227.398C190.041 227.412 190.291 227.809 190.041 227.836C188.869 227.962 187.584 228.045 186.413 227.948C186.127 227.923 186.279 227.621 186.211 227.54C185.792 227.055 185.316 227.852 185.229 227.874C183.148 228.418 181.465 227.894 179.327 228.426C179.208 228.457 178.381 229.348 177.908 228.699C177.876 228.655 177.403 227.99 177.093 228.507C177.074 228.539 177.357 228.878 176.921 228.883C176.486 228.888 175.793 229.2 175.159 228.859C174.957 228.752 174.442 228.092 173.921 228.708C173.882 228.751 173.137 230.102 172.736 229.257C172.671 229.118 172.639 228.187 171.997 228.727C171.876 228.831 172.13 229.015 171.803 229.176C171.305 229.424 170.576 229.241 169.97 229.713C169.866 229.796 169.446 230.468 169.016 230.025C168.949 229.956 169.036 229.637 168.829 229.62C167.844 229.541 166.847 229.837 165.851 229.705C165.499 229.659 165.634 229.144 165.261 229.041C164.887 228.937 164.138 228.869 163.784 229.127C163.424 229.386 163.903 230.15 163.338 230.259C160.882 230.733 158.388 230.441 155.899 230.529C155.535 230.541 155.855 230.808 155.318 230.847C153.304 230.995 149.891 231.443 148.119 230.91C146.714 230.485 148.439 230.037 147.373 229.886C146.858 229.813 146.334 230.766 146.211 230.8C145.037 231.145 144.151 230.765 143.083 230.928C142.861 230.961 143.092 231.331 142.903 231.355C142.257 231.442 141.56 231.295 140.929 231.344C140.653 231.367 140.712 231.653 140.457 231.638C139.844 231.605 139.295 231.498 138.682 231.243C138.626 231.22 138.99 230.853 138.53 230.851C137.783 230.848 136.886 230.601 136.032 230.892C135.796 230.973 135.783 231.555 135.325 231.265C135.306 231.252 135.286 231.238 135.264 231.222C135.252 231.212 135.24 231.203 135.227 231.192C135.113 231.099 135.243 230.307 134.63 231C134.527 231.116 133.497 232.056 132.972 231.473C132.833 231.319 132.474 230.68 132.177 230.788C132.137 230.805 132.307 231.155 132.06 231.195C131.191 231.328 130.271 231.312 129.375 231.445C129.136 231.481 129.502 231.837 129.146 231.88C128.164 231.997 126.944 231.936 125.975 231.849C125.618 231.817 125.855 231.507 125.828 231.475C125.397 230.951 125.173 231.682 125.036 231.728C124.188 232.006 123.527 231.686 122.743 231.802C122.527 231.833 122.692 232.173 122.65 232.205C122.212 232.52 122.526 231.89 122.239 231.831C121.433 231.664 120.543 231.722 119.74 231.795C119.445 231.822 119.791 232.21 119.527 232.23C117.968 232.355 116.316 232.381 114.781 232.224C114.491 232.194 114.66 231.878 114.597 231.81C114.163 231.336 113.585 232.032 113.445 232.102C112.818 232.421 112.559 232.16 111.999 232.236C109.275 232.609 105.881 232.594 103.272 232.622C99.9006 232.659 97.2449 232.519 94.0429 232.794C93.8404 232.811 94.0703 233.207 93.8962 233.227C91.6098 233.469 89.3726 233.455 87.0981 233.73C86.9129 233.752 87.2073 234.121 86.9112 234.169C86.311 234.27 85.5176 234.304 84.8841 234.225C84.575 234.187 84.9602 233.825 84.6497 233.794C83.9265 233.72 83.1673 233.747 82.4495 233.862C82.1359 233.913 82.6409 234.274 82.2314 234.309C79.4573 234.552 76.7978 234.826 73.9504 234.541C73.7571 234.521 73.5239 233.73 73.1342 233.917C73.1222 234.143 73.1455 234.406 73.1519 234.646C69.1536 235.104 65.1635 235.173 61.1533 235.508C60.9871 235.522 61.314 235.921 60.993 235.95C59.0774 236.125 57.2549 236.423 55.2896 236.195C55.0898 236.173 55.1101 235.414 54.5521 235.586C54.4502 235.617 53.6246 235.804 53.4292 235.988C53.4007 236.016 53.5985 236.349 53.3144 236.389C51.6835 236.613 50.0864 236.705 48.4247 236.678C48.1717 236.671 48.394 236.269 48.2141 236.261C46.8638 236.216 45.5595 236.656 44.269 236.482C43.405 236.366 43.6176 235.685 43.1334 235.11C43.0223 235.034 42.545 235.092 42.4764 234.729C42.2613 233.82 42.3313 232.776 42.0817 231.81C42.0702 231.77 42.0441 231.749 41.9965 231.74C41.9327 231.733 41.8565 231.737 41.7858 231.74C41.6455 231.745 41.5152 231.752 41.493 231.662C41.493 231.662 41.493 231.662 41.493 231.662C41.4816 231.609 41.5128 231.521 41.6119 231.383C41.6174 231.364 41.8225 231.274 41.9696 231.181C42.095 231.091 42.2542 230.98 42.3136 230.883C42.3969 230.748 42.1576 230.402 42.3461 230.218C42.5363 230.034 42.7238 230.326 43.0244 230.102C43.3277 229.875 43.1267 229.469 43.7006 229.344ZM204.036 224.925C203.555 224.591 203.549 225.904 204.036 225.565C204.06 225.547 204.061 224.942 204.036 224.925ZM259.714 218.643C259.064 218.321 258.742 218.994 259.21 219.247C259.676 219.499 259.911 218.739 259.714 218.643ZM265.875 217.349C265.125 217.157 265.214 218.436 265.926 218.051C265.967 218.029 265.918 217.36 265.875 217.349ZM45.1267 234.666C45.1272 234.648 44.7489 234.678 44.7366 234.697C44.6595 234.918 44.8143 235.012 44.9687 234.999C45.1079 234.988 45.226 234.873 45.1267 234.666ZM271.951 215.964C271.715 215.844 271.119 216.146 271.427 216.295C271.679 216.413 272.251 216.112 271.951 215.964ZM179.931 224.943C179.922 224.924 179.655 224.932 179.671 225.042C179.724 225.396 180.082 225.26 179.931 224.943ZM273.912 214.744C275.377 214.147 276.469 214.668 274.757 214.785C274.454 214.83 275.381 214.567 274.988 214.597C274.28 214.723 273.843 214.913 273.115 215.04C272.993 215.086 273.831 214.795 273.914 214.743C273.913 214.744 273.912 214.744 273.912 214.744ZM203.693 223.367C203.683 223.35 203.312 223.351 203.304 223.368C203.123 223.794 203.871 223.791 203.693 223.367ZM164.299 225.576C164.27 225.541 163.421 225.575 163.395 225.611C163.004 226.33 164.735 226.262 164.299 225.576ZM228.516 220.597C228.881 220.18 229.357 220.093 229.726 220.535C229.324 220.548 228.921 220.583 228.516 220.597Z" fill="white"/>
</g>
<path d="M188.602 17.5781C188.992 17.6437 189.383 17.7092 189.786 17.7767C195.398 18.7498 200.802 20.1032 206.18 21.9727C207.083 22.2786 207.083 22.2786 208.005 22.5906C217.077 25.7626 225.679 30.0986 233.523 35.6445C234.301 36.1931 234.301 36.1931 235.095 36.7527C255.565 51.7009 270.671 73.0137 276.98 97.6562C277.152 98.294 277.324 98.9317 277.495 99.5693C281.832 115.918 281.832 115.918 278.903 122.345C276.615 126.199 273.435 128.18 269.168 129.395C266.962 129.661 264.781 129.669 262.561 129.654C261.94 129.656 261.319 129.658 260.679 129.66C259.372 129.661 258.066 129.658 256.759 129.649C255.098 129.638 253.437 129.644 251.776 129.656C250.173 129.665 248.57 129.659 246.966 129.654C246.377 129.658 245.787 129.662 245.18 129.666C241.038 129.62 237.619 128.961 234.197 126.534C233.758 126.077 233.758 126.077 233.31 125.61C233.008 125.311 232.707 125.011 232.396 124.702C230.352 121.813 229.816 118.444 229.22 115.021C227.789 107.454 225.139 100.903 221.316 94.2383C219.892 95.5968 218.728 96.9961 217.593 98.6023C210.671 108.24 203.102 117.503 195.069 126.238C194.162 127.233 193.285 128.244 192.416 129.272C183.549 139.38 183.549 139.38 176.883 141.602C168.028 142.173 168.028 142.173 164.188 139.648C163.68 139.329 163.68 139.329 163.161 139.004C159.281 136.344 156.477 132.539 155.398 127.93C154.969 123.583 154.935 119.526 157.352 115.723C157.603 115.295 157.855 114.868 158.115 114.428C159.698 112.077 161.811 110.165 163.821 108.185C164.423 107.584 164.423 107.584 165.036 106.971C167.443 104.582 169.909 102.298 172.488 100.098C173.051 99.6108 173.614 99.1238 174.176 98.6366C182.027 91.881 190.141 85.4976 198.4 79.2512C199.037 78.7683 199.037 78.7683 199.687 78.2757C200.068 77.9877 200.449 77.6997 200.841 77.403C201.825 76.6593 201.825 76.6593 202.762 75.6836C198.702 73.2829 194.641 71.3711 190.158 69.8853C189.739 69.7458 189.32 69.6063 188.888 69.4627C183.709 67.805 178.872 67.2121 173.45 67.2287C172.407 67.2302 171.364 67.2188 170.321 67.2064C154.99 67.1358 141.21 73.7901 130.374 84.3811C121.292 93.5609 116.574 104.978 114.321 117.53C113.62 121.237 112.498 123.764 109.622 126.312C109.322 126.586 109.023 126.86 108.714 127.142C104.999 129.649 101.352 129.617 97.005 129.606C96.0535 129.61 96.0535 129.61 95.0828 129.614C93.7453 129.618 92.4079 129.617 91.0704 129.612C89.3673 129.607 87.6648 129.617 85.9618 129.631C84.3226 129.642 82.6835 129.639 81.0443 129.637C80.4384 129.642 79.8325 129.648 79.2082 129.653C74.201 129.613 70.5527 128.454 66.8879 124.979C64.0532 121.773 63.8089 118.469 63.9334 114.292C64.1664 110.807 64.8212 107.413 65.5547 104.004C65.6411 103.597 65.7275 103.19 65.8165 102.77C70.024 83.259 79.1036 65.7406 92.8984 51.2695C93.5026 50.5711 94.1033 49.8695 94.699 49.1638C96.0599 47.6012 97.5075 46.2336 99.0916 44.899C99.9136 44.2059 100.722 43.4967 101.522 42.778C124.63 22.1984 158.056 12.4343 188.602 17.5781Z" fill="#13293D"/>
<path d="M167.605 25.3906C167.605 36.3477 167.605 47.3047 167.605 58.5938C163.738 59.2383 159.871 59.8828 155.887 60.5469C145.443 63.5652 136.991 67.9252 128.543 74.707C126.797 73.9658 125.683 72.9415 124.351 71.6026C123.911 71.1628 123.472 70.7229 123.018 70.2698C122.543 69.7894 122.068 69.309 121.593 68.8286C121.103 68.3371 120.613 67.8459 120.123 67.3549C118.837 66.0646 117.553 64.7715 116.27 63.4777C114.959 62.157 113.646 60.839 112.332 59.5207C109.758 56.9358 107.187 54.3478 104.617 51.7578C106.496 49.442 108.373 47.6359 110.751 45.8374C111.112 45.5644 111.472 45.2914 111.843 45.0101C125.476 34.8888 141.097 28.4467 157.84 25.8789C158.352 25.7858 158.863 25.6926 159.391 25.5966C162.113 25.2963 164.866 25.3906 167.605 25.3906Z" fill="#247BA0"/>
<path d="M98.2695 57.6172C101.141 59.9987 103.772 62.5678 106.401 65.2122C106.84 65.6525 107.28 66.0927 107.732 66.5462C108.89 67.706 110.047 68.8669 111.202 70.0283C112.387 71.2175 113.572 72.4053 114.758 73.5931C117.075 75.9163 119.392 78.2408 121.707 80.5664C121.011 82.4016 120.289 83.6369 118.991 85.1135C111.653 94.0861 107.117 106.041 105.912 117.506C105.487 119.035 104.868 119.608 103.641 120.605C102.328 120.857 102.328 120.857 100.813 120.866C100.244 120.874 99.6756 120.881 99.0896 120.889C98.4772 120.887 97.8648 120.885 97.2338 120.882C96.603 120.885 95.9721 120.888 95.3221 120.891C93.9876 120.896 92.6535 120.894 91.319 120.887C89.6124 120.879 87.9065 120.89 86.1999 120.907C84.5678 120.921 82.9358 120.916 81.3037 120.913C80.3865 120.922 80.3865 120.922 79.4509 120.932C74.737 120.882 74.737 120.882 73.2194 119.472C72.1312 117.754 72.1497 116.422 72.3601 114.471C72.3919 114.109 72.4236 113.747 72.4563 113.374C74.463 93.1403 83.7946 72.0922 98.2695 57.6172Z" fill="#1B98E0"/>
<path d="M176.395 25.3906C180.842 25.3906 184.707 25.4474 188.998 26.2146C189.505 26.3036 190.012 26.3926 190.535 26.4843C207.798 29.6367 223.601 37.5436 236.941 48.8281C237.753 49.4815 238.567 50.1332 239.383 50.7812C238.573 52.7838 237.166 54.2242 235.69 55.7556C235.452 56.0222 235.214 56.2887 234.968 56.5634C233.538 58.0413 232.651 58.7094 230.569 58.7482C227.058 58.9304 224.283 61.4027 221.5 63.3545C220.914 63.7558 220.328 64.1564 219.741 64.5561C217.453 66.1216 215.189 67.6962 213.004 69.4046C211.551 70.3125 211.551 70.3125 210.334 70.3449C208.682 69.6427 207.165 68.7627 205.63 67.8406C196.376 62.5106 187.004 59.7726 176.395 58.5938C176.395 47.6367 176.395 36.6797 176.395 25.3906Z" fill="#E4C3AD"/>
<path d="M245.242 57.6172C247.699 59.5669 249.653 61.6173 251.498 64.1479C251.748 64.4872 251.998 64.8265 252.256 65.176C256.571 71.108 260.246 77.3198 263.309 83.9844C263.455 84.3017 263.602 84.619 263.753 84.9459C267.957 94.205 270.752 104.115 271.609 114.258C271.648 114.611 271.686 114.964 271.726 115.328C271.841 117.036 271.698 118.024 270.782 119.479C268.63 121.466 265.43 120.941 262.696 120.913C261.749 120.914 261.749 120.914 260.783 120.916C259.45 120.918 258.116 120.91 256.783 120.897C255.076 120.88 253.369 120.883 251.662 120.892C250.03 120.899 248.398 120.89 246.766 120.882C246.154 120.884 245.541 120.887 244.91 120.889C244.057 120.878 244.057 120.878 243.187 120.866C242.437 120.861 242.437 120.861 241.672 120.857C240.01 120.539 239.438 119.969 238.406 118.652C237.964 117.117 237.964 117.117 237.674 115.326C237.557 114.666 237.438 114.007 237.317 113.348C237.256 113.012 237.196 112.676 237.133 112.33C235.403 103.293 231.773 95.0299 226.688 87.4023C226.777 85.0582 228.104 83.4324 229.432 81.6002C229.894 80.943 230.355 80.2856 230.816 79.628C231.541 78.6034 232.268 77.5809 233.002 76.5624C236.641 71.5438 236.641 71.5438 238.152 65.6137C238.633 63.417 240.255 62.141 241.885 60.6995C242.207 60.3977 242.529 60.0958 242.86 59.7849C243.645 59.0511 244.438 58.3297 245.242 57.6172Z" fill="#FA7A7A"/>
<path d="M227.664 68.8477C227.664 70.5571 227.348 70.9384 226.375 72.3C226.097 72.693 225.818 73.086 225.532 73.491C225.228 73.9124 224.925 74.3339 224.612 74.7681C224.145 75.4252 224.145 75.4252 223.668 76.0957C223.027 76.9964 222.385 77.8962 221.742 78.7952C220.935 79.9279 220.137 81.0658 219.344 82.2086C215.726 87.4157 211.908 92.4594 208.041 97.4832C207.267 98.4888 206.496 99.4965 205.728 100.506C203.18 103.846 200.568 107.125 197.879 110.352C197.669 110.603 197.46 110.855 197.244 111.115C194.476 114.432 191.652 117.68 188.727 120.861C187.79 121.89 186.879 122.934 185.977 123.993C184.458 125.728 182.883 127.404 181.277 129.059C181.04 129.311 180.802 129.563 180.558 129.823C178.529 131.883 176.557 133.032 173.648 133.512C170.707 133.517 169.009 133.109 166.629 131.348C164.147 128.732 163.603 126.445 163.426 122.946C164.193 119.114 167.254 116.359 169.955 113.739C170.284 113.413 170.613 113.086 170.952 112.75C173.179 110.557 175.488 108.48 177.859 106.445C178.286 106.076 178.286 106.076 178.72 105.7C190.082 95.8678 201.93 86.528 214.28 77.9655C215.667 77.0027 217.051 76.0351 218.434 75.0675C219.466 74.347 220.498 73.6267 221.53 72.9065C222.273 72.3877 222.273 72.3877 223.031 71.8584C223.492 71.5377 223.953 71.217 224.427 70.8866C224.84 70.5992 225.252 70.3117 225.677 70.0155C226.688 69.3359 226.688 69.3359 227.664 68.8477Z" fill="#4C5B79"/>
<defs>
<filter id="filter0_d_1_2917" x="0.285999" y="168.308" width="354.056" height="84.3746" filterUnits="userSpaceOnUse" color-interpolation-filters="sRGB">
<feFlood flood-opacity="0" result="BackgroundImageFix"/>
<feColorMatrix in="SourceAlpha" type="matrix" values="0 0 0 0 0 0 0 0 0 0 0 0 0 0 0 0 0 0 127 0" result="hardAlpha"/>
<feOffset dy="4"/>
<feGaussianBlur stdDeviation="6"/>
<feComposite in2="hardAlpha" operator="out"/>
<feColorMatrix type="matrix" values="0 0 0 0 1 0 0 0 0 1 0 0 0 0 1 0 0 0 0.12 0"/>
<feBlend mode="normal" in2="BackgroundImageFix" result="effect1_dropShadow_1_2917"/>
<feBlend mode="normal" in="SourceGraphic" in2="effect1_dropShadow_1_2917" result="shape"/>
</filter>
</defs>
</svg>
